<?xml version="1.0" encoding="utf-8"?>
<!-- Generator: Adobe Illustrator 15.1.0, SVG Export Plug-In . SVG Version: 6.00 Build 0)  -->
<!DOCTYPE svg PUBLIC "-//W3C//DTD SVG 1.1//EN" "http://www.w3.org/Graphics/SVG/1.1/DTD/svg11.dtd">
<svg version="1.1" id="Layer_1" xmlns="http://www.w3.org/2000/svg" xmlns:xlink="http://www.w3.org/1999/xlink" x="0px" y="0px"
	 width="210px" height="36px" viewBox="30.748 7 210 36" enable-background="new 30.748 7 210 36" xml:space="preserve">
<g>
	<g>
		<circle fill="#00A14B" cx="56.287" cy="24.857" r="17.857"/>
		<path fill="#FFFFFF" d="M54.571,34.32c-2.751,0-5.097-2.449-5.097-5.829c0-3.306,1.64-6.536,5.274-6.536
			c0.958,0,1.893,0.303,2.675,0.833v2.018c-0.909-0.328-1.943-0.503-2.599-0.503c-1.918,0-2.625,1.994-2.625,3.608
			c0,2.296,0.58,3.987,2.625,3.987c0.807,0,1.816-0.076,2.724-0.732l0.656,1.817C57.296,33.713,56.161,34.32,54.571,34.32
			L54.571,34.32z M61.837,21.299v-0.404c0-1.414,0-1.867-0.252-2.574c-0.706-1.993-2.472-2.926-4.945-2.926
			c-2.928,0-4.694,1.008-6.007,1.967l0.656,1.968c1.515-1.01,2.877-1.514,4.845-1.514c2.221,0,2.979,1.236,2.979,3.607v7.496
			c0,1.992,0.681,4.542,2.472,5.4l1.514-1.212c-1.236-0.908-1.262-2.321-1.262-4.364L61.837,21.299L61.837,21.299z"/>
	</g>
	<g>
		<g>
			<path fill="#2D2C2C" d="M88.199,31.979c-2.135,0-3.779-0.689-5.046-2.133c-1.245-1.402-1.867-3.269-1.867-5.536
				c0-1.934,0.333-3.467,1.044-4.801c1.201-2.245,3.423-3.58,5.913-3.58c1.533,0,3.067,0.489,3.912,1.223l-1.4,2.112
				c-0.778-0.579-1.601-0.867-2.467-0.867c-1.045,0-2.068,0.511-2.624,1.334c-0.6,0.889-0.867,2.178-0.867,3.979
				c0,2.112,0.178,3.29,0.644,4.134c0.622,1.135,1.646,1.733,2.979,1.733c0.912,0,1.733-0.266,2.645-0.999l1.423,1.956
				C91.267,31.535,89.956,31.979,88.199,31.979z"/>
			<path fill="#2D2C2C" d="M100.735,32.023c-0.377-0.268-0.688-0.646-0.89-1.111c-0.733,0.711-1.8,1.088-3,1.088
				c-1.601,0-2.979-0.757-3.357-1.844c-0.177-0.512-0.244-1.112-0.244-2.269v-7.29l2.934-0.556v7.313
				c0,1.022,0.089,1.556,0.244,1.867c0.156,0.312,0.601,0.532,1.044,0.532c0.734,0,1.622-0.532,1.845-1.088v-8.003l2.845-0.6v8.69
				c0,0.756,0.244,1.535,0.689,2.068L100.735,32.023z"/>
			<path fill="#2D2C2C" d="M107.617,31.979c-1.267,0-2.29-0.601-2.646-1.557c-0.222-0.577-0.267-0.932-0.267-2.555v-8.492
				c0-1.489-0.044-2.401-0.156-3.423l3.045-0.689c0.111,0.623,0.156,1.355,0.156,2.957v8.869c0,1.957,0.022,2.222,0.2,2.534
				c0.111,0.199,0.356,0.312,0.601,0.312c0.111,0,0.178,0,0.333-0.045l0.512,1.778C108.884,31.867,108.262,31.979,107.617,31.979z"
				/>
			<path fill="#2D2C2C" d="M112.089,19.042c-1,0-1.823-0.822-1.823-1.845c0-1.022,0.844-1.845,1.867-1.845c1,0,1.8,0.822,1.8,1.845
				C113.934,18.219,113.112,19.042,112.089,19.042z M110.6,31.712V20.531l2.979-0.467v11.647H110.6z"/>
			<path fill="#2D2C2C" d="M122.143,31.712V24.31c0-1.29-0.223-1.667-1-1.667c-0.6,0-1.378,0.4-2.067,1.022v8.047h-2.979v-8.247
				c0-0.978-0.134-1.911-0.4-2.668l2.645-0.755c0.267,0.467,0.423,0.956,0.423,1.423c0.444-0.312,0.822-0.579,1.312-0.845
				c0.6-0.311,1.377-0.489,2.045-0.489c1.267,0,2.378,0.667,2.734,1.645c0.156,0.422,0.222,0.911,0.222,1.623v8.314H122.143
				L122.143,31.712z"/>
			<path fill="#2D2C2C" d="M135.386,32.289c-0.69-0.288-1.312-0.8-1.601-1.377c-0.222,0.222-0.465,0.443-0.688,0.599
				c-0.556,0.4-1.356,0.623-2.29,0.623c-2.534,0-3.912-1.289-3.912-3.557c0-2.667,1.844-3.912,5.468-3.912
				c0.223,0,0.422,0,0.667,0.022V24.22c0-1.266-0.244-1.688-1.333-1.688c-0.957,0-2.068,0.467-3.291,1.289l-1.266-2.133
				c0.601-0.377,1.045-0.6,1.845-0.934c1.112-0.466,2.066-0.667,3.111-0.667c1.912,0,3.223,0.711,3.667,1.979
				c0.156,0.467,0.223,0.823,0.2,2.045l-0.066,3.824c-0.023,1.245,0.066,1.777,1.067,2.534L135.386,32.289z M132.851,26.733
				c-2.067,0-2.779,0.378-2.779,1.733c0,0.89,0.556,1.489,1.312,1.489c0.556,0,1.111-0.288,1.556-0.777l0.044-2.445H132.851z"/>
			<path fill="#2D2C2C" d="M144.163,22.932c-0.288-0.156-0.535-0.223-0.866-0.223c-0.668,0-1.269,0.312-1.824,0.956v8.047h-2.979
				V24.11c0-1.534-0.179-2.69-0.421-3.334l2.666-0.711c0.268,0.467,0.423,0.978,0.467,1.622c0.645-0.867,1.556-1.622,2.667-1.622
				c0.443,0,0.645,0.044,1.113,0.244L144.163,22.932z"/>
			<path fill="#2D2C2C" d="M152.387,31.891c-0.776,2.2-1.354,3.156-2.178,3.756c-0.757,0.556-1.734,0.911-2.757,1.045l-1.022-1.955
				c0.644-0.178,1.4-0.444,1.846-0.757c0.333-0.244,0.599-0.556,0.845-0.934c0.289-0.466,0.378-0.667,0.644-1.334h-0.756
				c-0.355-1.067-0.956-2.844-1.068-3.2l-2.689-8.002l3.046-0.356l1.979,6.647c0.178,0.666,0.555,2.199,0.601,2.355
				c0-0.067,0.223-1.268,0.356-1.823c0.087-0.378,0.266-1.045,0.443-1.578l1.711-5.424h3.134L152.387,31.891z"/>
			<path fill="#2D2C2C" d="M165.924,31.712l-1.088-3.668H160.3l-1.087,3.668h-3.247l5.068-15.493h3.357l4.866,15.493H165.924z
				 M163.233,22.354c-0.155-0.712-0.621-2.735-0.621-2.735s-0.445,1.823-0.734,2.979c-0.289,1.112-0.489,1.845-0.821,2.867h3.022
				C164.079,25.465,163.566,23.843,163.233,22.354z"/>
			<path fill="#2D2C2C" d="M179.949,22.42c-0.291,0-0.602-0.044-0.779-0.066c0.445,0.533,0.667,1.111,0.667,1.866
				c0,1.957-1.778,3.379-4.201,3.379c-0.134,0-0.223,0-0.444-0.022c-0.756,0.356-1.178,0.622-1.178,0.935
				c0,0.156,0.178,0.267,0.489,0.267l1.601,0.022c1.734,0.021,2.645,0.288,3.444,1.021c0.669,0.623,0.979,1.401,0.979,2.424
				c0,0.956-0.288,1.69-0.91,2.357c-0.999,1.065-2.712,1.466-4.491,1.466c-1.621,0-3.289-0.267-4.312-1.222
				c-0.622-0.579-0.934-1.245-0.934-2.022c0-0.622,0.156-0.935,0.267-1.156h2.755c-0.11,0.267-0.133,0.423-0.133,0.732
				c0,0.912,0.757,1.401,2.135,1.401c0.756,0,1.398-0.09,1.866-0.378c0.444-0.268,0.733-0.688,0.733-1.155
				c0-1.022-0.91-1.334-2.091-1.355l-1.266-0.021c-1.334-0.023-2.201-0.135-2.732-0.356c-0.535-0.2-0.869-0.712-0.869-1.489
				c0-0.733,0.223-1.423,2.091-1.913c-1.646-0.421-2.446-1.467-2.446-3.156c0-2.333,1.891-3.845,4.801-3.845
				c0.645,0,1.225,0.089,2.045,0.289c0.624,0.156,1.023,0.244,1.401,0.244c0.823,0,1.667-0.355,2.356-0.977l1.246,1.89
				C181.393,22.176,180.771,22.42,179.949,22.42z M174.971,22.31c-1.135,0-1.779,0.622-1.779,1.689c0,1.156,0.712,1.623,1.756,1.623
				c1.178,0,1.823-0.579,1.823-1.623C176.77,22.932,176.104,22.31,174.971,22.31z"/>
			<path fill="#2D2C2C" d="M184.905,26.955v0.09c0,1.756,0.867,2.757,2.4,2.757c1.021,0,1.979-0.378,2.889-1.135l1.157,1.777
				c-1.312,1.066-2.69,1.579-4.29,1.579c-3.269,0-5.38-2.312-5.38-5.891c0-2.045,0.423-3.401,1.423-4.513
				c0.933-1.044,2.067-1.534,3.579-1.534c1.311,0,2.557,0.445,3.289,1.201c1.045,1.067,1.513,2.601,1.513,4.979v0.689H184.905z
				 M188.396,24.644c0-0.845-0.089-1.291-0.356-1.712c-0.288-0.445-0.711-0.667-1.312-0.667c-1.134,0-1.777,0.89-1.777,2.467v0.045
				h3.445V24.644z"/>
			<path fill="#2D2C2C" d="M199.334,31.712V24.31c0-1.29-0.223-1.667-1-1.667c-0.601,0-1.381,0.4-2.068,1.022v8.047h-2.979v-8.247
				c0-0.978-0.134-1.911-0.4-2.668l2.645-0.755c0.268,0.467,0.424,0.956,0.424,1.423c0.443-0.312,0.821-0.579,1.31-0.845
				c0.602-0.311,1.38-0.489,2.045-0.489c1.268,0,2.381,0.667,2.735,1.645c0.155,0.422,0.222,0.911,0.222,1.623v8.314H199.334
				L199.334,31.712z"/>
			<path fill="#2D2C2C" d="M208.139,31.979c-1.511,0-2.712-0.667-3.067-1.668c-0.178-0.489-0.199-0.709-0.199-1.754v-6.181h-1.133
				v-2.044h1.133c0-1.112,0-1.845,0.11-2.69l3.022-0.755c-0.111,1.044-0.177,2.29-0.177,3.445h2.667l-0.757,2.044h-1.91v5.713
				c0,1.445,0.266,1.823,1.288,1.823c0.267,0,0.535-0.066,1.067-0.223l0.377,1.779C209.694,31.823,208.918,31.979,208.139,31.979z"
				/>
			<path fill="#2D2C2C" d="M215.074,32.068c-1.401,0-2.936-0.445-4.603-1.312l1.069-2.179c0.91,0.556,2.488,1.289,3.777,1.289
				c0.845,0,1.511-0.555,1.511-1.289c0-0.777-0.555-1.177-1.755-1.399l-1.334-0.245c-0.756-0.134-1.688-0.667-2.09-1.156
				c-0.4-0.489-0.645-1.311-0.645-2.044c0-2.223,1.757-3.712,4.401-3.712c1.824,0,3.022,0.556,4.068,1.067l-0.979,2.001
				c-1.133-0.578-1.956-0.822-2.8-0.822c-0.867,0-1.444,0.444-1.444,1.111c0,0.578,0.377,0.89,1.422,1.156l1.379,0.357
				c1.401,0.354,1.866,0.776,2.268,1.289c0.422,0.532,0.622,1.177,0.622,1.934C219.942,30.467,217.985,32.068,215.074,32.068z"/>
		</g>
		<g>
			<path fill="#808080" d="M220.359,15.78h1.896c0.352,0,0.633,0.08,0.844,0.24c0.212,0.16,0.317,0.403,0.317,0.728
				c0,0.197-0.048,0.366-0.145,0.506c-0.099,0.14-0.234,0.249-0.413,0.326v0.011c0.24,0.051,0.423,0.165,0.547,0.342
				c0.125,0.177,0.187,0.398,0.187,0.665c0,0.153-0.026,0.296-0.083,0.43c-0.054,0.133-0.14,0.249-0.256,0.344
				c-0.118,0.097-0.267,0.173-0.449,0.23c-0.182,0.057-0.399,0.085-0.65,0.085h-1.795V15.78L220.359,15.78z M221.043,17.416h1.115
				c0.164,0,0.3-0.046,0.41-0.139c0.108-0.093,0.165-0.228,0.165-0.402c0-0.197-0.051-0.335-0.148-0.417
				c-0.099-0.08-0.241-0.12-0.427-0.12h-1.116L221.043,17.416L221.043,17.416z M221.043,19.128h1.207
				c0.208,0,0.371-0.054,0.484-0.162c0.116-0.108,0.173-0.26,0.173-0.458c0-0.192-0.057-0.342-0.173-0.445
				c-0.113-0.104-0.276-0.156-0.484-0.156h-1.207V19.128z"/>
			<path fill="#808080" d="M224.484,15.78h2.811v0.59h-2.128v1.023h1.971v0.558h-1.971v1.144h2.167v0.591h-2.85V15.78z"/>
			<path fill="#808080" d="M227.833,15.78h3.163v0.59h-1.243v3.316h-0.684v-3.316h-1.236V15.78L227.833,15.78z"/>
			<path fill="#808080" d="M232.264,15.78h0.729l1.505,3.906h-0.734l-0.366-1.034h-1.561l-0.366,1.034h-0.705L232.264,15.78z
				 M232.023,18.132h1.193l-0.586-1.68h-0.015L232.023,18.132z"/>
		</g>
	</g>
</g>
</svg>
